<?xml version="1.0" ?><svg id="Line" viewBox="0 0 200 200" xmlns="http://www.w3.org/2000/svg"><path d="M161.156,119.484a39.675,39.675,0,0,0-8.311-13.891,20.072,20.072,0,0,0-1.679-1.528c-.8-.689-2.37-2.04-2.951-2.707-.2-19.219-2.707-30.669-7.456-34.037a4.966,4.966,0,0,0-2.856-.993V41.375l18.3-18.3a2,2,0,0,0-1.414-3.414H43.129c-.014,0-.026,0-.039,0s-.026,0-.039,0h-.364a1.979,1.979,0,0,0-1.6,3.167V50.537A7.157,7.157,0,0,0,35.944,57.4v3.028a7.131,7.131,0,0,0,2.773,5.64,5.273,5.273,0,1,0,8.752,0,7.133,7.133,0,0,0,2.772-5.64V57.4a7.157,7.157,0,0,0-5.151-6.86V26.89L59.166,40.966v25.65a5.613,5.613,0,0,0-1.335.7c-4.75,3.367-7.261,14.813-7.466,34.041-.593.683-2.234,2.092-2.981,2.735a20.094,20.094,0,0,0-1.647,1.494,39.645,39.645,0,0,0-8.3,13.891,30.257,30.257,0,0,0,2.31,22.628,25.263,25.263,0,0,0,13.32,12.324A38.288,38.288,0,0,0,45.78,176.92a2,2,0,0,0,2,2H152.95a2,2,0,0,0,2-2,38.288,38.288,0,0,0-7.791-23.167C159.74,147.921,164.984,131.523,161.156,119.484Zm-16.936-17.59c.015,1.3.938,2.277,4.336,5.2.507.436,1.138.98,1.281,1.132a35.783,35.783,0,0,1,7.507,12.466c3.332,10.48-1.606,25.406-12.9,29.869A38.4,38.4,0,0,0,116.57,138.54H115.2v-.958c.382-.08.764-.161,1.158-.26A32.186,32.186,0,0,0,140.89,105.99V83.98a41.737,41.737,0,0,0-2.107-13.114l.009.008C140.36,72.37,144.026,78.388,144.22,101.894ZM61.1,83.98a37.777,37.777,0,0,1,2.1-12.451H110.3c-5.869,8.992-19.33,20.352-49.195,16Zm73.692-12.451a37.741,37.741,0,0,1,2.091,12.137c-8.894.331-13.85-5.838-16.583-12.137ZM133.9,42.07V67.529H63.166V42.07ZM61.1,91.559a90.737,90.737,0,0,0,12.568.936c25.083,0,36.415-12.243,41.3-20.966h1.011c2.6,6.743,8.337,16.162,20.13,16.162.254,0,.519-.016.779-.025V105.99A28.2,28.2,0,0,1,115.4,133.439a24.844,24.844,0,0,1-2.5.5,28.182,28.182,0,0,1-4.266.326H89.36a26.915,26.915,0,0,1-3.148-.177A28.292,28.292,0,0,1,61.1,105.99Zm26.979,48.693a9.772,9.772,0,0,1-.089-1.392v-.638c.451.019.9.038,1.37.038h19.27c.857,0,1.716-.039,2.57-.108v.708a9.74,9.74,0,0,1-.1,1.438,11.6,11.6,0,0,1-23.025-.046ZM43.093,70.274A1.273,1.273,0,1,1,44.366,69,1.275,1.275,0,0,1,43.093,70.274ZM46.241,57.4v3.028a3.149,3.149,0,0,1-6.3,0V57.4a3.149,3.149,0,1,1,6.3,0ZM149.963,23.659l-14.3,14.3H61.812l-14.3-14.3ZM43.292,140.264A26.179,26.179,0,0,1,41.246,120.7a35.68,35.68,0,0,1,7.483-12.449c.146-.156.765-.688,1.263-1.116,3.437-2.954,4.368-3.942,4.368-5.243.165-19.339,2.678-26.834,4.437-29.718A41.813,41.813,0,0,0,57.1,83.98v22.01a32.125,32.125,0,0,0,24.73,31.374c.715.173,1.437.315,2.16.438v.742a38.07,38.07,0,0,0-26.951,11.229c-.4.391-.768.783-1.1,1.147h-.815A21.1,21.1,0,0,1,43.292,140.264Zm6.546,34.656a34.254,34.254,0,0,1,8.492-20.678c.6-.679,1.065-1.177,1.525-1.629A34.116,34.116,0,0,1,84.16,142.54h.284a15.591,15.591,0,0,0,30.306,0h1.82a34.389,34.389,0,0,1,34.322,32.38Z"/><path d="M80.49,107.076a5.669,5.669,0,1,0-5.668-5.669A5.675,5.675,0,0,0,80.49,107.076Zm0-7.337a1.669,1.669,0,1,1-1.668,1.668A1.67,1.67,0,0,1,80.49,99.739Z"/><path d="M116.873,107.076a5.669,5.669,0,1,0-5.669-5.669A5.675,5.675,0,0,0,116.873,107.076Zm0-7.337a1.669,1.669,0,1,1-1.669,1.668A1.67,1.67,0,0,1,116.873,99.739Z"/><path d="M82.728,118.354a2,2,0,0,0,.034,2.83A23.927,23.927,0,0,0,97.8,127.863c.439.025.87.037,1.3.037a24.309,24.309,0,0,0,16.412-6.712,2,2,0,0,0-2.784-2.873,20.052,20.052,0,0,1-14.7,5.554,19.849,19.849,0,0,1-12.475-5.549A2,2,0,0,0,82.728,118.354Z"/></svg>